<svg id="eAw86VWxsz71" xmlns="http://www.w3.org/2000/svg" xmlns:xlink="http://www.w3.org/1999/xlink" viewBox="0 0 542.5 501.5" shape-rendering="geometricPrecision" text-rendering="geometricPrecision"><path d="M493.4,222.7c-11.4-15-4.2-18.4-37.4-19.8-12.3-.5-21.6-2.3-31.1,3-9.5,5.4-20.7,13.3-28.4,15-7.7,1.8-46.6,9.7-52.2,6.9-5.6-2.7-54.7-36-87.4-44.7-16.3-4.3-32-3.3-48.8-.1-16.7,3-23.4,1.8-44.6,3.8-30.3,2.8-65.8,1.9-75.3,28.3-7.7,21.6-11.6,36.3,4.8,72c10.7,23.5,21.3,32.3,23.5,59.6s.5,35.2-1,45.2c-1.4,10.1,9.9,29.9,13.9,37.6s19.6,34,29.1,40.7c4,2.9,10.1,1,16.8,2.9s16.8-2.4,18.9-6.4s3.8-8.8-.3-14.4c0,0,1.6-8.6-8.8-12.5-10.6-3.8-16.5-5.9-18.7-10.5s-10.4-24.9-7.2-31.8s24.6-40.7,28.3-46.5c3.5-5.7,8-4,13.6-3.2c10.7,1.8,28.9,1,46,2.9s43.6,8.8,52.9,11.2s11.2,15,15.2,25.6c3.8,10.5,17.3,38,20.1,51.4c2.9,13.4,4.3,26.3,11.2,30.4c6.9,4,17.6.5,17.6.5s6.7.8,12.5.5s11.5-4.5,8.6-12.9c0,0,9.7,2.5,13.6,1c4.8-1.9,8-6.7,4.5-13.1-2.7-5.1-9.3-8-13.9-8.3-4.5-.5-7.7-7.7-8.3-12.6-.8-5.1-.8-31.5-2.4-40.2-2.3-12.1,6.2-21.1,14.9-25.1c8.6-4,31.2-18.2,38.7-35.2c7.5-17.1,13.1-26.3,19.5-27.3c6.2-1,16.5,8.6,27.5,6.4c11-2.1,12-4.8,15.8-8.1c3.8-3.4,4.3-7.5,2.7-13.4s.3-18.7,1.6-23.5c1.5-4.6,4.8-21.1-6-35.3Z" fill="#a3b5be" fill-opacity="0" stroke="#656565" stroke-width="10" stroke-miterlimit="10"/><path d="M470.6,214.7c-1.1-2.1-8.3-4.3,2-9.7s34.2-11.8,35.3-9.7-6.4,8.2-16.6,13.5c-10.4,5.4-19.6,8-20.7,5.9Z" fill="#a3b5be" fill-opacity="0" stroke-opacity="0"/><path d="M459.4,218.7c-1.6-1.8-13.2-1.8-4.4-9.5s34.5-20,36-18.2c1.6,1.8-4.2,9.4-13,17.1s-17,12.4-18.6,10.6Z" fill="#a3b5be" fill-opacity="0"/><g><path d="M151.9,459c0,2.3.6,4.5,1.6,6.6c1.8,1.9,3.5,3.5,5,4.6c4,2.9,10.1,1,16.8,2.9s16.8-2.4,18.9-6.4s3.8-8.8-.3-14.4c0,0,1.6-8.6-8.8-12.5-3.3-1.2-6.2-2.2-8.6-3.2-14.6,4.4-24.6,12.8-24.6,22.4Z" fill="#fff" fill-opacity="0" stroke="#656565" stroke-width="9" stroke-miterlimit="10"/><path d="M385.3,457.6c-3.4-13.1-21.4-18.1-24.4-34.1s1-21,0-36s16.1-32.6,16.1-32.6" fill="none" stroke="#656565" stroke-width="10" stroke-linecap="round" stroke-miterlimit="10"/><path d="M346.6,469.5c6.9,4,17.6.5,17.6.5s6.7.8,12.5.5s11.5-4.5,8.6-12.9c-.2-.8-.5-1.6-.8-2.4l-4.2-6.4c0,0-8-7.7-24.4-6.3-9.1.8-14.9,4.6-18.2,7.8c1.9,8.8,4,16.2,8.9,19.2Z" fill="#fff" fill-opacity="0" stroke="#656565" stroke-width="8" stroke-miterlimit="10"/><path d="M276.9,343.7c-16-3.8-17-5.2-51-7.2s-38.3,14.5-38.3,14.5c3.5-5.7,8-4,13.6-3.2c10.7,1.8,28.9,1,46,2.9s43.6,8.8,52.9,11.2c2.9.7,5.1,2.5,6.9,4.9-.2-.2-14.2-19.3-30.1-23.1Z" fill="#fff" stroke="#656565" stroke-width="8" stroke-miterlimit="10"/><path d="M407.9,322.5c-10.5,13.8-17.3,15.7-27,26-14.3,15.1-7.6,26.4-2.4,31.7.1-10,7.6-17.4,15.3-20.9c8.6-4,31.2-18.2,38.7-35.2c5.3-12.1,9.7-20.2,14-24.3-6.7,0-23.3,2.6-38.6,22.7Z" fill="rgba(255,255,255,0)" stroke="#656565" stroke-width="8" stroke-miterlimit="10"/></g><path d="M109.455501,195.214917L100,164.321561L76.407942,97.158323C72.248087,76.691798,84.461431,72.142993,100,80.870921c12.303783-4.436391,17.433705-7.828224,15.499999-19.772253q-1.933706-11.944029-34.267241-10.595727c-9.991271-1.39169-24.759362,7.242162-29.434247,17.497056-6.868237,6.872012-6.935654,28.507513-3.588877,41.975735l19.995163,57.934702l8.203145,59.889563l4.824815,22.95c-.940285-24.727303,6.873921-53.754509,28.222744-55.53508Z" transform="translate(.000001 0.000003)" fill="none" stroke="#656565" stroke-width="10"/><path d="M451.799997,202.9L487.989215,191c3.241735-1.311303,4.387353,1.123225,3.010785,4.21492L479.299999,205.9c-3.900249-1.399119-23.493073-3.577033-27.500002-3Z" transform="translate(.000003 0)" fill="none" stroke="#656565" stroke-width="10" stroke-miterlimit="10"/><path d="M472.6,204.85c9.762323-4.804932,27.051345-10.753113,35.3-9.55-2.561436,6.035491-14.233797,13.265434-21.984744,16.122082-3.694646-4.906931-8.713637-5.436269-13.315256-6.572082Z" fill="none" stroke="#656565" stroke-width="10"/></svg>
