<svg id="eKbsxCkDq2A1" xmlns="http://www.w3.org/2000/svg" xmlns:xlink="http://www.w3.org/1999/xlink" viewBox="0 0 6001 4001" shape-rendering="geometricPrecision" text-rendering="geometricPrecision" style="background-color:#111216"><g transform="matrix(.1 0 0-.1 0 4001)"><path d="M58334,39122c-28-22-47-61-123-252-34-85-68-163-76-174-13-18-22-14-160,78-230,152-260,163-306,116-36-35-38-79-6-114c12-14,67-54,122-90c226-146,265-176,265-201s-12-56-77-195c-57-122-68-165-64-243c1-23,57-56,84-49c55,13,93,74,152,243c39,113,58,149,79,149c8,0,86-48,175-106c186-122,215-132,261-86c16,17,30,40,30,51c0,49-26,73-207,191-101,66-186,127-190,136-3,8,34,111,82,229c97,239,104,275,60,312-31,27-72,29-101,5Z" fill="#0b0b0e"/><path d="M33931,38953c-18-9-88-66-155-127-162-149-515-462-821-731-262-230-437-394-487-458-17-21-32-54-35-76-5-36-4-39,33-53c24-10,91-18,169-23c72-3,148-8,170-10s101-6,175-10c74-3,158-8,185-10c28-2,118-7,200-10c83-3,170-8,195-10c25-3,108-7,185-11c77-3,154-7,170-9c42-4,389-19,452-19c28,0,59,6,67,13c38,32,32,65-94,497-261,901-292,997-336,1041-27,27-29,27-73,6Zm80-551c33-109,99-330,145-492c47-162,87-304,90-314c6-18-1-19-206-11-117,4-222,8-234,10s-93,6-181,10c-88,3-180,8-205,10s-94,7-155,10c-109,6-300,20-425,31-36,3-68,9-72,13-3,3,251,237,565,519l572,514l23-52c12-28,50-140,83-248Z" fill="#0b0b0e"/><g><path d="M19485,38581c-137-37-256-144-338-307-54-108-71-175-71-289-1-84,3-108,22-150c45-98,103-138,202-139c227-3,469,300,471,589c0,133-45,236-120,274-44,23-123,33-166,22Z" transform="translate(.000001 0.000001)" fill="#0b0b0e"/><path d="M18595,38398c-148-32-261-254-250-493c11-233,133-406,284-405c171,1,308,229,296,490-13,272-154,445-330,408Z" fill="#0b0b0e"/><path d="M20105,38070c-265-55-517-342-498-570c11-129,84-199,219-208c219-14,494,190,575,426c26,76,27,177,2,233-45,100-161,147-298,119Z" fill="#0b0b0e"/><path d="M19025,37453c-16-2-100-22-185-43-85-22-209-47-275-55-266-36-430-119-491-250-60-127,3-276,142-336c24-10,118-34,209-53c280-59,333-100,469-365c50-97,102-185,123-206c72-74,194-106,276-72c168,71,229,304,171,647-2,14-6,113-9,220s-11,220-17,250c-37,193-195,293-413,263Z" transform="translate(0 0.000001)" fill="#0b0b0e"/><path d="M19995,37166c-244-56-418-224-403-388c7-71,49-125,131-167c60-31,77-35,171-39c131-6,226,14,339,71c96,48,187,132,218,203c22,50,27,132,10,176-18,47-70,95-133,123-54,24-78,29-168,32-65,1-128-3-165-11Z" fill="#0b0b0e"/></g><path d="M39524,38550c-45-18-76-99-76-204-1-95,24-174,74-230c51-59,106-80,196-74c87,4,154,37,317,154c214,153,257,170,307,117c14-16,53-70,87-120c70-104,108-141,184-180c44-23,64-28,133-28c71,0,87,4,145,33c35,18,116,76,179,128c138,115,179,139,213,123c13-6,65-60,117-120c153-179,220-223,335-224c90,0,138,26,284,151c126,108,139,122,150,161c10,35-8,87-34,97-57,22-99,0-222-114-99-93-161-128-207-116-37,9-78,48-185,175-115,136-169,173-254,173-74-1-171-53-302-162-60-51-127-101-149-112-90-46-150-16-246,123-96,138-144,186-200,203-108,32-211-7-453-171-217-147-262-160-294-85-12,30-14,59-9,153l7,117-27,21c-29,23-38,24-70,11Z" fill="#0b0b0e"/><path d="M46501,38390c-239-83-424-308-498-608-12-48-17-110-17-217c1-130,4-160,25-230c99-323,368-500,754-497c275,2,533,130,681,338c225,315,141,691-191,855-110,54-210,68-321,45-241-49-403-235-404-463c0-185,135-324,317-325c134-1,233,96,233,228c0,56-24,99-66,119s-67,19-94-3c-17-14-21-28-21-75c0-93-48-122-120-74-38,25-79,97-79,139c0,47,39,134,81,181c196,223,592,67,613-241c9-126-41-241-154-354-207-204-534-256-799-126-83,40-198,152-234,228-45,94-60,173-54,280c19,300,216,595,445,667c96,31,132,98,76,142-36,28-73,26-173-9Z" transform="translate(0 0.000001)" fill="#0b0b0e"/><g><path d="M26765,38112c-52-25-78-54-109-122-128-282,83-740,341-740c143,0,234,127,234,327c0,182-69,354-188,464-66,62-105,81-178,86-45,3-70-1-100-15Z" fill="#0b0b0e"/><path d="M25865,38058c-201-70-188-373,25-601c124-132,252-198,388-199c142-1,221,72,230,215s-54,284-188,417c-89,90-162,135-259,164-61,18-151,20-196,4Z" fill="#0b0b0e"/><path d="M25415,37406c-71-17-130-53-162-99-25-36-28-49-28-121c0-65,5-91,24-129c94-192,338-337,566-337c106,0,171,20,228,70c52,46,68,86,68,165c0,164-188,359-418,432-88,28-205,36-278,19Z" fill="#0b0b0e"/><path d="M27170,37135c-101-17-200-24-355-26-212-3-297-30-382-122-22-24-50-70-63-103-31-83-24-183,29-386c23-87,48-205,56-263c20-140,30-183,65-274c75-192,213-288,356-246c112,32,178,128,209,300c60,340,102,401,375,540c189,96,249,149,275,240c45,152-43,283-221,330-78,21-250,26-344,10Z" fill="#0b0b0e"/><path d="M25715,36560c-113-23-224-88-272-161-38-57-43-138-13-202c89-188,451-268,696-153c127,60,187,133,187,231c0,168-201,297-458,294-55-1-118-5-140-9Z" fill="#0b0b0e"/></g><path d="M52669,38068c-49-25-93-62-191-160-206-208-241-211-400-36-151,167-171,181-271,180-97,0-204-63-392-231-99-88-171-139-208-145-55-9-87,54-87,174-1,77-14,140-32,151-24,16-74,10-93-11-27-30-42-105-38-183c12-202,143-324,311-289c76,16,144,59,275,176c148,132,223,186,256,186c34-1,55-18,136-115c80-95,115-125,187-162c45-24,65-28,133-28c117,0,171,29,305,164c144,145,187,181,216,181c16,0,53-26,115-82c201-184,249-212,359-213c65,0,82,4,125,29c53,32,231,210,278,278c34,51,35,91,2,123-53,53-109,27-220-104-91-107-134-141-183-148-47-6-81,16-219,145-170,160-239,182-364,120Z" fill="#0b0b0e"/><path d="M12035,38017c-194-77-356-283-416-532-31-127-32-324-1-447c97-390,404-598,811-549c308,38,563,211,686,466c150,311,64,623-211,767-222,117-465,87-630-78-66-66-113-150-134-243-17-73-6-191,25-258c108-238,471-248,530-15c22,85,5,157-46,195-35,25-95,25-121-1-23-22-27-77-8-111c9-18,8-27-4-47-33-49-99-43-157,14-65,65-71,150-18,259c34,71,80,115,159,152c46,22,68,26,135,25c48-1,98-8,125-18c107-40,199-131,235-235c21-62,19-175-5-255-25-80-103-199-172-261-70-63-172-122-265-153-68-23-95-26-213-27-106,0-147,4-190,19-176,60-294,173-351,336-20,56-23,85-24,215c0,127,3,162,23,229c55,192,157,330,305,418c67,39,78,111,22,136-31,14-51,14-90-1Z" fill="#0b0b0e"/><path d="M1909,37907c-41-21-139-75-813-449-375-208-460-265-479-320-10-28,35-71,176-170c140-98,629-448,962-690c443-320,572-390,605-327c23,42,23,41-140,994-158,922-159,931-182,960-25,32-70,33-129,2Zm6-229c12-59,80-447,130-748c30-184,59-360,64-390c22-129,43-301,37-307-3-3-14,1-23,9-10,9-205,147-433,308-364,257-787,557-799,567-3,2,4,10,15,18c26,21,277,171,394,236c272,151,596,328,602,329c4,0,10-10,13-22Z" transform="translate(0 0.000001)" fill="#0b0b0e"/><path d="M7195,36944c-192-46-467-111-610-145-385-91-495-131-495-178c0-27,49-97,172-247c63-76,213-263,333-414s306-385,414-520c210-265,349-415,393-425c68-17,81,16,108,271c24,220,25,232,39,354c6,47,17,155,26,240s18,171,20,190s9,85,15,145c5,61,15,148,20,195c24,201,50,462,51,520c2,79-18,101-90,99-25-1-203-39-396-85Zm295-156c0-24-5-86-10-138-6-52-12-117-15-145-51-517-116-1064-133-1129l-8-29-46,54c-33,40-842,1040-911,1127-13,17-7,21,60,44c90,30,995,250,1056,257c4,1,7-18,7-41Z" transform="translate(0 0.000001)" fill="#0b0b0e"/><g transform="translate(0 0.000001)"><path d="M57392,35280c-74-16-163-71-242-150-202-201-262-511-126-646c192-193,597,93,656,463c17,105-7,220-58,276-45,50-145,75-230,57Z" fill="#0b0b0e"/><path d="M56452,35178c-95-46-188-194-218-347-40-205,18-416,136-496c39-26,54-30,110-30c77,0,137,30,195,97c165,192,181,567,31,726-68,73-167,92-254,50Z" transform="translate(0 0.000001)" fill="#0b0b0e"/><path d="M57900,34694c-137-36-292-143-375-259-147-205-116-406,70-460c106-31,256-3,385,72c132,78,271,247,295,362c22,103-4,194-71,249-63,52-187,67-304,36Z" fill="#0b0b0e"/><path d="M56810,34209c-36-4-119-13-185-22-66-8-183-18-260-22-173-7-259-25-352-70-187-92-239-270-118-413c42-50,98-78,277-136s220-79,290-150c53-55,93-131,143-276c47-134,76-191,121-236c51-50,107-74,178-74c103,0,184,57,241,169c48,96,56,149,65,427c4,144,10,266,14,272c13,21,15,219,2,274-43,186-193,278-416,257Z" transform="translate(.000001 0)" fill="#0b0b0e"/><path d="M57775,33824c-11-2-45-9-75-15s-92-28-138-50c-178-86-261-229-203-354c104-225,579-230,792-8c55,57,77,97,85,157c17,120-86,226-255,262-62,13-161,17-206,8Z" fill="#0b0b0e"/></g><g><path d="M38320,34554c-93-40-139-129-141-271-2-137,33-249,117-374c127-192,328-281,458-205c84,49,118,124,119,261c1,145-43,271-142,405-113,154-294,235-411,184Z" fill="#0b0b0e"/><path d="M39238,34377c-81-31-153-122-191-241-29-93-31-280-3-371c39-131,106-222,191-261c83-39,156-27,231,39c49,43,104,147,124,236c16,68,16,209,0,286-26,130-107,257-190,300-44,23-118,28-162,12Z" fill="#0b0b0e"/><path d="M37663,34044c-23-8-59-35-81-58-76-82-77-205-5-356c53-111,187-242,303-298c259-124,461-49,462,172c1,203-200,450-431,529-74,26-193,31-248,11Z" transform="translate(0 0.000001)" fill="#0b0b0e"/><path d="M38740,33431c-111-34-194-124-229-246-6-22-14-123-17-225-2-102-12-254-21-337-26-236-1-379,83-490c59-77,169-110,265-78c89,30,142,93,235,280c63,126,90,171,134,216c86,88,140,111,363,155c71,14,153,36,182,49c138,61,200,205,141,331-62,133-219,216-472,249-124,16-144,20-350,71-141,34-254,43-314,25Z" fill="#0b0b0e"/><path d="M37744,33159c-119-15-212-69-251-143-45-87-5-217,95-306c237-212,667-211,756,2c20,47,20,81,0,148-23,77-129,183-234,233-117,56-252,80-366,66Z" transform="translate(.000001 0)" fill="#0b0b0e"/></g><g><path d="M32335,33774c-69-35-126-111-161-214-27-78-27-299,0-385c70-228,212-356,361-325c173,36,274,297,219,568-31,156-130,309-229,353-50,23-149,25-190,3Z" fill="#0b0b0e"/><path d="M31555,33539c-52-20-94-58-122-112-35-68-44-218-19-318c45-181,181-360,322-425c200-93,358,25,357,266-1,167-70,328-197,455-55,55-100,91-138,109-65,30-158,41-203,25Z" fill="#0b0b0e"/><path d="M33138,33292c-139-51-257-206-303-399-24-98-17-247,14-318c75-171,255-193,405-50c111,107,175,257,183,432c5,85,2,112-16,173-28,90-83,150-153,168-60,15-73,15-130-6Z" fill="#0b0b0e"/><path d="M31198,32697c-153-43-198-195-111-373c59-121,220-257,361-306c94-32,229-33,289-1c162,87,141,318-47,503-112,110-239,171-380,184-41,3-83,1-112-7Z" fill="#0b0b0e"/><path d="M32317,32589c-139-32-211-120-307-374-22-60-77-182-120-270-93-188-114-257-114-380c0-73,4-100,22-140c46-101,108-140,222-140c101,1,147,26,291,160c196,183,247,209,409,208c58-1,154-10,215-21c173-32,270-17,351,51c80,68,96,197,40,310-53,104-184,215-354,301-41,20-144,85-230,143s-181,116-212,129c-64,26-156,36-213,23Z" fill="#0b0b0e"/></g><path d="M43489,33188c-11-20-7-241,5-303c2-11,7-74,11-140s9-127,10-135c2-8,6-69,9-135c4-66,9-131,11-145s7-79,10-145s8-140,10-165c3-25,7-88,10-140c31-553,59-739,118-774c30-18,77,19,194,154c311,357,1098,1279,1114,1305c11,17,19,38,19,48c0,30-50,71-120,100-106,43-957,376-1060,414-237,88-319,103-341,61Zm265-229c146-45,991-373,1001-389c9-14-785-940-918-1069l-55-53-6,48c-3,27-8,92-11,144s-8,120-10,150c-7,89-13,157-30,380-10,124-15,192-25,325-6,77-12,160-14,185-3,25-8,92-11,150s-8,115-11,128c-6,28,5,28,90,1Z" fill="#0b0b0e"/><g><path d="M49285,32681c-178-83-194-392-33-648c56-89,163-186,235-213c66-25,145-28,195-7c109,46,166,200,139,376-50,322-336,584-536,492Z" transform="translate(.000001 0)" fill="#0b0b0e"/><path d="M50172,32455c-225-114-272-582-81-800c97-110,255-104,347,12c73,94,112,217,113,357c0,100-6,141-33,222-64,189-210,277-346,209Z" fill="#0b0b0e"/><path d="M48630,32211c-116-35-170-127-157-265c30-316,438-616,684-502c174,81,153,354-44,566-143,154-351,241-483,201Z" transform="translate(.000001 0)" fill="#0b0b0e"/><path d="M49661,31543c-67-17-109-42-155-93-81-90-92-135-111-462-4-53-8-107-10-120-65-364-43-536,83-650c51-46,100-62,172-55c115,10,188,75,279,249c145,276,233,340,511,373c177,21,272,60,326,135c82,113,63,248-51,348-88,77-214,127-406,161-64,12-172,37-240,57-238,70-308,81-398,57Z" fill="#0b0b0e"/><path d="M48552,31301c-205-71-228-272-50-436c118-109,292-170,464-163c80,3,100,8,160,38c96,49,129,96,129,188c0,55-5,76-30,120-61,112-206,213-363,253-99,25-237,25-310,0Z" fill="#0b0b0e"/></g><path d="M15747,32586c-188-78-345-245-423-454-49-128-64-223-60-377c4-160,18-220,77-341c124-253,390-389,728-371c130,7,240,35,349,89c169,83,289,202,367,363c51,107,65,166,65,283-1,179-86,327-249,434-251,164-567,105-723-136-50-78-68-143-70-249-1-78,2-93,31-151c51-104,148-171,261-179c107-8,190,36,234,125c58,116,15,238-84,238-62,0-85-35-75-110c6-45,5-50-19-65-70-46-176,41-176,146c0,106,72,214,178,266c49,24,69,28,142,28c71-1,95-5,144-28c118-54,191-138,221-252c37-142-18-300-152-431-79-78-159-126-278-166-79-27-104-31-205-32-79,0-135,5-179,17-259,70-421,271-421,520c0,179,65,368,176,516c59,79,128,134,219,177c80,37,108,62,108,99c0,67-80,84-186,41Z" fill="#0b0b0e"/><path d="M21805,31792c-59-12-1279-428-1339-456-86-40-111-65-102-102c7-27,46-69,590-636c506-527,773-791,829-817c44-21,49-22,72-7c14,10,26,29,29,48c8,51,15,369,22,993c3,314,7,644,8,735c3,178-4,226-34,235-30,10-54,12-75,7Zm-69-719c-9-720-18-973-36-973-14,0-1071,1093-1063,1101c26,23,1048,379,1091,379c12,0,14-72,8-507Z" fill="#0b0b0e"/><g><path d="M2892,31309c-156-77-189-363-71-605c98-202,268-300,405-233c50,24,89,71,117,143c32,80,29,254-6,361-50,153-144,274-252,326-73,35-133,38-193,8Z" fill="#0b0b0e"/><path d="M2007,31246c-102-28-166-133-154-255c11-127,73-245,187-362c117-118,243-180,370-181c224-2,303,198,179,452-34,70-58,101-133,175-102,101-196,155-300,174-73,13-88,13-149-3Z" fill="#0b0b0e"/><path d="M1580,30590c-305-49-290-382,25-580c182-115,413-142,547-63c18,10,47,38,65,61c136,178-84,483-408,567-70,18-167,24-229,15Z" fill="#0b0b0e"/><path d="M3285,30334c-38-7-140-16-225-19-309-13-375-30-465-120-106-106-123-213-66-425c43-161,76-308,95-423c39-236,147-400,290-438c118-32,246,44,294,174c12,31,31,114,42,184c49,297,104,368,396,517c132,67,184,109,218,178c32,64,35,152,7,213-35,78-125,139-239,164-70,15-259,12-347-5Z" transform="translate(0 0.000001)" fill="#0b0b0e"/><path d="M1870,29744c-75-16-168-59-222-104-45-37-88-121-88-172c0-126,131-239,320-278c233-48,488,34,567,183c23,43,23,141,0,185-81,151-339,234-577,186Z" fill="#0b0b0e"/></g><path d="M54193,30746c-41-36-35-87,28-232c66-150,73-205,33-253-28-33-86-63-209-108-160-58-233-112-254-190-22-80-8-159,62-349c25-66,48-141,52-166c13-83-37-141-151-175-38-12-108-33-156-47-96-29-139-59-168-117-45-86-36-210,31-451c22-79,42-169,46-200c12-116-43-137-197-72-112,48-133,51-159,25-36-36-28-78,23-127c82-78,246-115,353-80c95,31,154,126,155,245c1,81-2,95-57,286-67,233-69,282-16,309c15,8,74,27,131,41c163,41,251,96,308,194c25,42,27,54,26,151c0,101-2,110-48,230-68,178-80,228-62,256c10,14,65,41,158,79c324,129,390,232,304,475-98,282-152,345-233,276Z" fill="#0b0b0e"/><g><path d="M25825,30600c-187-42-226-282-84-522c162-276,490-398,626-234c38,47,53,96,53,177-1,223-185,476-408,559-59,22-139,31-187,20Z" fill="#0b0b0e"/><path d="M26738,30600c-122-38-188-163-189-355c0-120,17-191,71-302c155-315,459-302,519,21c43,233-67,517-236,608-54,29-124,41-165,28Z" fill="#0b0b0e"/><path d="M25262,29961c-232-80-189-382,80-571c228-160,510-170,613-22c27,39,30,51,30,121c0,105-40,188-139,287-167,167-412,244-584,185Z" fill="#0b0b0e"/><path d="M27040,29588c-36-4-169-4-297-1-223,6-234,5-303-17-133-43-216-150-227-294-4-53,1-106,20-206c38-199,45-246,52-340c8-117,13-153,36-240c64-241,239-361,405-277c95,48,133,115,188,330c70,273,131,343,397,452c150,62,180,79,231,132c49,50,70,104,71,178c1,133-99,230-278,270-73,16-208,22-295,13Z" fill="#0b0b0e"/><path d="M25534,29106c-74-14-155-50-210-92-42-31-84-117-84-169c0-55,42-136,93-181c91-77,259-134,400-134c79,0,202,31,269,67c239,130,166,393-135,488-100,32-233,40-333,21Z" fill="#0b0b0e"/></g><path d="M11306,30348c-8-18-17-55-20-83-4-27-9-61-11-75s-15-113-29-220-39-289-56-405c-141-975-161-1146-144-1219c13-53,38-68,84-52c38,13,74,40,640,470c769,584,898,686,908,714c12,34,2,60-34,93-28,25-935,627-1069,709-108,66-183,100-220,100-31,0-38-4-49-32Zm252-275c183-107,872-561,872-574c0-15-959-745-1112-847-38-25-71-43-73-40-3,3,1,52,9,109c17,115,36,261,126,929c62,465,65,480,76,480c3,0,49-26,102-57Z" transform="translate(0 0.000001)" fill="#0b0b0e"/><path d="M58874,28521c-17-10-85-90-151-178-139-183-148-193-167-172-7,8-67,75-133,149-138,155-141,158-181,169-38,11-89-17-98-53-12-51,5-77,184-276c62-69,117-132,122-141c12-21-23-76-119-189-124-145-155-219-112-271c26-33,79-31,125,4c20,16,75,83,122,150c91,130,109,148,128,141c7-3,66-66,131-140s130-144,143-155c72-56,171,20,131,101-8,16-75,97-149,180-74,84-139,158-143,166-5,9,36,71,131,196c153,201,162,215,162,252c0,38-10,55-41,71-36,19-48,19-85-4Z" fill="#0b0b0e"/><g><path d="M38430,28385c-274-57-511-436-434-694c61-206,316-210,519-7c120,120,192,268,202,416c15,209-102,324-287,285Z" fill="#0b0b0e"/><path d="M37502,28305c-93-42-167-136-216-275-27-76-30-98-30-210-1-141,20-223,75-299c121-168,335-114,443,111c53,110,69,192,63,323-7,164-53,273-140,331-51,34-142,43-195,19Z" fill="#0b0b0e"/><path d="M38893,27786c-289-95-502-393-420-588c68-161,338-174,561-28c283,186,368,505,162,612-64,34-208,36-303,4Z" fill="#0b0b0e"/><path d="M37775,27320c-173-22-264-30-400-34-214-6-346-45-441-128-103-91-110-252-15-353c49-52,101-79,253-129c162-53,217-80,278-134c64-57,104-129,164-298c57-162,84-213,140-261c36-33,117-63,166-63c71,0,154,51,205,124c72,105,88,185,100,521c3,83,12,198,19,257c22,186,10,276-51,365-80,119-207,159-418,133Z" transform="translate(.000001 0)" fill="#0b0b0e"/><path d="M38740,26919c-308-59-480-300-330-463c71-77,180-116,325-116c115,0,207,20,299,64c254,123,293,365,77,476-90,45-250,62-371,39Z" fill="#0b0b0e"/></g><path d="M33030,27472c-30-4-815-166-1080-222-324-70-401-97-408-148-4-28,20-67,131-211c50-64,277-363,504-664c530-703,584-767,655-767c52,0,58,25,113,435c14,105,30,226,36,270c5,44,14,109,19,145s12,83,15,105c2,22,22,175,44,340c84,630,87,664,69,688-15,20-62,34-98,29Zm-84-229c-6-35-14-91-21-163-3-30-12-102-20-160s-21-159-29-225c-57-445-120-857-135-883-5-9-58,52-171,200-587,767-759,994-760,1003-3,20,233,77,780,190c168,35,318,64,333,64c26,1,28-2,23-26Z" fill="#0b0b0e"/><path d="M44266,26949c-252-36-506-186-636-374-47-69-99-184-114-256-20-88-13-235,14-324c12-38,41-107,65-152c129-244,349-417,596-469c96-20,270-19,350,1c267,68,429,269,429,530-1,221-109,404-292,490-191,90-405,58-544-81-115-116-117-329-5-442c53-52,88-66,166-66c109,0,186,50,201,130c19,101-75,152-146,79-40-41-59-43-97-11-24,21-28,31-28,78c0,109,82,178,220,186c88,5,163-21,229-79c60-53,91-108,111-194c49-208-81-402-304-455-78-18-218-8-317,24-322,103-540,459-463,755c23,91,56,149,127,224c130,136,330,222,542,234c127,7,199-9,313-67c86-44,111-48,145-24c33,23,30,75-8,117-40,46-151,103-246,127-89,23-222,31-308,19Z" fill="#0b0b0e"/><path d="M7432,26861c-151-38-306-138-418-270-73-86-163-256-195-366-28-99-36-278-15-375c71-336,416-575,820-569c140,2,243,26,361,84c407,198,507,643,211,939-112,113-216,156-372,156-230,0-424-150-468-363-40-191,90-372,276-385c177-13,316,202,197,302-60,51-119,22-134-64-12-70-67-80-125-22-97,97-36,253,130,331c44,21,70,26,131,26c65,0,85-5,142-33c77-38,148-111,186-192c22-47,26-69,26-145c0-80-3-97-31-155-41-84-89-138-172-194-164-108-361-141-557-91-226,57-413,236-456,436-38,175,38,400,194,574c131,147,277,225,441,238c75,6,111,31,111,77c0,24-7,38-28,54-39,29-156,32-255,7Z" fill="#0b0b0e"/><path d="M19825,25484c-14-15-55-86-91-158-95-186-124-239-140-252-19-15-64-5-218,48-67,22-148,43-182,46-57,4-64,2-88-21-32-32-34-79-5-108c31-31,90-54,226-88c149-38,173-47,173-64c0-8-40-93-90-190-55-109-90-188-90-207c0-66,88-105,139-62c11,9,65,105,120,212s106,196,114,198s111-25,228-59c250-72,281-75,315-36c13,16,24,41,24,56c0,60-36,78-297,151-84,23-160,48-170,56-17,12-12,25,75,196c108,213,117,245,77,282-38,35-88,35-120,0Z" fill="#0b0b0e"/><g><path d="M54479,25081c-72-15-153-64-224-136-128-128-189-268-190-430c0-79,3-96,27-142c136-257,555-35,648,342c37,151-6,301-101,350-33,18-114,26-160,16Z" transform="translate(.000001 0)" fill="#0b0b0e"/><path d="M55274,24789c-131-16-305-108-401-211-224-245-151-508,142-508c75,0,195,29,267,66c226,114,372,332,328,492-21,80-100,145-192,158-74,10-81,11-144,3Z" fill="#0b0b0e"/><path d="M53575,24276c-127-40-188-119-188-243c0-88,46-166,156-265c51-46,116-108,145-138c94-97,140-227,128-360-3-36-9-122-12-191-8-152,6-208,69-276c51-56,96-75,173-76c158-2,300,138,419,413c25,56,83,168,131,251c114,197,128,234,127,334c0,96-22,153-85,221-56,60-124,93-309,150-85,26-185,60-224,76-161,68-214,87-287,102-91,19-187,20-243,2Z" transform="translate(.000001 0)" fill="#0b0b0e"/><path d="M55362,24031c-210-52-366-189-380-333-24-252,394-366,720-196c142,73,221,177,219,288-1,96-47,162-148,214-92,47-280,59-411,27Z" transform="translate(.000001 0)" fill="#0b0b0e"/><path d="M54860,23329c-83-14-178-66-214-116-44-63-48-143-12-217c54-111,191-205,357-248c108-27,254-22,343,12c96,37,166,124,166,207c0,137-172,297-372,347-77,20-201,27-268,15Z" fill="#0b0b0e"/></g><path d="M48484,24786c-133-42-243-183-245-313-1-75,23-125,87-181c58-52,123-76,299-113c330-69,339-77,299-239-34-135-41-242-21-311c31-105,111-182,222-214c28-8,103-22,168-30c213-28,255-43,260-95c1-14-4-79-12-145-28-250,0-374,97-436c57-36,89-45,222-65c223-32,300-21,315,46c15,68-49,110-180,117-113,6-204,22-237,41-34,20-58,68-58,118c0,21,7,97,16,169c9,71,14,153,12,180-12,144-110,205-383,240-136,18-188,30-222,52-59,39-67,125-28,293c39,164,31,227-38,298-62,66-158,103-399,157-331,74-338,99-94,311c40,35,47,70,19,102-25,28-51,33-99,18Z" fill="#0b0b0e"/><g><path d="M27855,24260c-199-78-359-350-351-597c3-80,7-102,35-157c36-73,84-112,152-124c101-18,194,21,300,127c132,133,200,300,195,481-2,105-24,171-74,224-61,65-161,83-257,46Z" fill="#0b0b0e"/><path d="M26972,24035c-119-61-192-219-193-420-2-207,77-376,203-439c85-43,159-30,237,40c181,163,186,580,9,763-49,52-88,71-152,78-42,4-61,0-104-22Z" fill="#0b0b0e"/><path d="M28530,23790c-251-60-491-354-473-580c12-147,101-217,262-208c260,15,541,309,541,565c0,62-31,144-66,175-57,51-168,71-264,48Z" transform="translate(.000001 0)" fill="#0b0b0e"/><path d="M27507,23129c-26-4-116-28-200-52-175-52-179-53-295-73-235-40-390-122-455-243-71-130-23-273,116-341c46-22,96-35,197-50c74-12,155-26,180-32c140-34,243-123,324-278c107-205,164-274,254-304c83-29,167-15,235,37c39,29,89,120,107,192c16,67,13,239-6,355-8,52-17,106-20,120-2,14-6,77-9,140-14,280-39,365-131,450-78,70-175,96-297,79Z" fill="#0b0b0e"/><path d="M28575,22902c-213-20-428-156-484-308-27-71-26-107,3-170c40-86,127-132,264-141c387-25,741,331,530,534-65,63-190,97-313,85Z" fill="#0b0b0e"/></g><g><path d="M1654,23641c-158-40-276-276-261-523c12-188,80-329,196-401c55-34,150-31,213,6c180,105,257,438,162,695-60,162-188,254-310,223Z" fill="#0b0b0e"/><path d="M2463,23465c-161-48-309-238-352-452-36-177-6-323,83-400c67-60,164-68,261-23c79,37,182,149,232,250c57,117,76,194,76,315c0,113-21,183-72,246-54,65-143,89-228,64Z" fill="#0b0b0e"/><path d="M922,23080c-103-23-162-114-170-263-7-146,40-290,141-422c121-160,307-215,413-123c97,86,119,261,54,447-80,233-279,396-438,361Z" fill="#0b0b0e"/><path d="M2840,22651c-158-51-306-177-381-323-31-61-52-157-46-209c23-193,223-251,451-131c86,45,218,171,264,253c96,170,74,347-51,405-64,29-156,31-237,5Z" fill="#0b0b0e"/><path d="M1759,22437c-72-24-118-56-276-189-59-49-151-118-203-152-235-155-340-293-340-448c0-81,28-140,87-182c99-70,168-72,389-15c277,71,362,56,565-103c185-144,232-168,334-168c64,0,145,38,181,86c53,69,68,186,39,299-22,83-71,185-153,312-38,59-106,181-152,270-71,140-90,171-141,217-95,88-209,113-330,73Z" fill="#0b0b0e"/></g><g><path d="M14232,23368c-73-12-134-49-212-128-236-236-268-644-59-751c146-74,364,57,474,286c156,323,48,638-203,593Z" fill="#0b0b0e"/><path d="M13310,23135c-127-58-210-221-211-416-1-252,107-446,264-474c129-24,261,108,302,300c49,234-37,503-186,580-46,24-127,29-169,10Z" transform="translate(.000001 0.000001)" fill="#0b0b0e"/><path d="M14864,22885c-204-43-418-247-474-454-26-99-8-214,43-270c35-38,115-71,172-71c272,0,575,301,575,570c0,169-132,263-316,225Z" fill="#0b0b0e"/><path d="M13805,22215c-33-7-121-31-195-53-74-23-194-52-265-66-205-40-322-88-404-167-144-139-114-345,64-425c50-23,82-29,275-60c128-20,194-43,261-94c66-49,108-107,193-263c50-91,84-141,121-176c154-146,364-81,431,132c27,85,26,249-1,412-13,77-27,201-30,275-13,242-45,346-131,416-88,72-195,96-319,69Z" fill="#0b0b0e"/><path d="M14848,21990c-239-41-451-221-450-384c0-61,11-91,47-135c59-69,190-108,325-96c288,26,534,240,498,434-26,138-208,216-420,181Z" fill="#0b0b0e"/></g><path d="M39754,22487c-22-19-26-31-25-68c1-47,5-65,70-283c23-76,41-145,41-152c0-17-27-22-230-39-239-21-260-29-260-107c0-81,43-89,324-63c106,10,200,15,210,12c22-9,32-36,72-200c36-146,71-229,103-247c33-17,71-11,98,16c23,23,25,31,20,83-2,31-26,123-53,204-31,96-44,151-38,157c11,11,121,26,264,35c166,11,210,31,210,95c0,75-37,94-169,85-53-4-98-9-101-10-3-2-52-6-110-10s-113-9-122-10c-9-2-22,2-28,10-6,7-39,111-74,232-78,265-72,250-107,268-39,21-64,19-95-8Z" fill="#0b0b0e"/><path d="M34065,21236c-168-39-318-150-387-288-126-248-36-548,199-665c174-86,358-34,440,126c76,146,14,298-139,341-96,28-185-91-112-149c15-12,34-21,43-21c30,0,61-30,61-58c0-83-126-130-219-82-54,27-117,102-137,163-57,167,28,347,203,430c60,28,78,32,153,32c71,0,94-4,140-26c113-54,199-150,249-279c96-246,42-526-138-723-166-180-382-232-596-144-171,70-355,246-431,412-40,87-54,151-54,251c0,77-3,95-21,118-21,27-56,34-88,16-52-27-68-209-32-352c110-429,608-742,1015-638c213,54,396,227,496,467c154,371,45,801-253,994-114,74-269,103-392,75Z" fill="#0b0b0e"/><path d="M58178,21120c-41-42-38-55,77-290c52-107,95-202,95-211c0-22-39-55-160-139-154-106-190-145-190-205c0-31,41-75,70-75c39,0,115,45,205,120c50,41,105,86,124,99l34,24l20-24c11-13,51-89,89-169c90-187,107-210,159-210c50,0,89,35,89,79c0,17-41,112-100,231-82,165-98,205-89,217c7,8,95,78,196,155s188,149,193,159c27,49,0,111-54,125-37,9-84-18-239-138-78-60-153-116-168-124l-28-14-88,177c-48,98-101,192-116,210-38,43-77,44-119,3Z" fill="#0b0b0e"/><path d="M23507,20179c-17-26-24-75-32-219-14-240-21-348-40-615-21-293-25-344-30-395-2-25-7-92-11-150-3-58-8-116-10-130s-7-133-10-265c-6-206-4-245,9-277c14-34,20-38,51-38c43,0,49,5,476,379c672,590,1000,882,1010,901c34,64,0,96-240,230-206,115-244,136-480,270-317,180-376,212-485,266-60,30-129,57-152,60-36,5-43,3-56-17Zm271-283c198-99,902-494,902-506c0-3-145-134-322-292-498-441-777-678-799-678-7,0-9,15-5,38c3,20,8,87,11,147c3,61,8,137,10,170c3,33,10,141,15,240c6,99,12,198,15,220c2,22,6,94,10,160c3,66,7,138,10,160c2,22,7,94,11,160s8,131,9,145c2,14,3,40,4,58c1,17,6,32,11,32c6,0,59-24,118-54Z" fill="#0b0b0e"/><g><path d="M7792,19999c-157-78-272-301-274-529-2-145,36-255,110-322c126-113,308-51,426,146c189,315,101,735-155,736-31,0-65-10-107-31Z" fill="#0b0b0e"/><path d="M8594,19676c-191-47-371-241-428-461-20-74-20-190-2-243c61-172,250-198,443-62c182,127,307,385,276,567-27,156-143,235-289,199Z" fill="#0b0b0e"/><path d="M6969,19620c-204-107-206-543-4-767c65-73,137-107,215-101c80,6,132,42,176,123c157,283-31,767-297,765-33-1-68-8-90-20Z" fill="#0b0b0e"/><path d="M7680,18824c-30-8-134-55-230-103-96-49-209-101-250-115-286-102-442-250-442-417c0-111,72-198,194-234c47-13,88-15,235-11c107,4,196,2,223-5c121-28,202-89,341-260c120-149,178-188,286-197c54-4,70-1,118,23c100,49,146,142,146,296-1,103-19,187-72,327-22,58-60,184-85,281s-55,199-68,226c-71,155-231,232-396,189Z" fill="#0b0b0e"/><path d="M8775,18800c-127-27-288-119-366-209-113-131-137-285-58-375c162-185,618-40,756,242c23,47,28,70,28,133c0,98-27,144-111,185-62,30-172,41-249,24Z" fill="#0b0b0e"/></g><path d="M45720,19158c-34-12-81-59-151-149-101-130-168-159-248-106-20,14-84,66-142,117-164,146-232,167-349,108-46-23-86-55-144-117-174-183-202-209-242-220-63-17-122,18-238,144-108,116-155,145-232,145-105-1-185-50-387-233-84-75-167-144-186-153-43-21-81-10-99,28-17,37-32,121-32,187c0,69-19,101-60,101-42,0-59-9-75-40-36-69-26-218,20-309c51-102,130-147,239-139c98,8,164,50,324,201c142,135,189,171,235,183c26,6,37-3,145-114c143-148,194-177,312-177c122,0,163,25,344,210c118,122,157,155,177,155c18,0,56-27,130-91c175-153,242-191,343-193c95-2,150,32,271,165c109,120,155,186,155,225c0,31-27,73-47,75-5,0-15,2-23,3-8,2-26-1-40-6Z" fill="#0b0b0e"/><path d="M54149,18041c-36-36-37-76-10-234c28-166,15-224-57-254-20-9-110-26-198-39-217-31-261-51-306-139-27-52-35-185-19-314c19-156,20-174,9-219-12-49-52-87-106-101-20-5-98-12-172-15-154-7-188-14-236-51-82-63-103-157-103-460c0-136-4-241-10-257-5-15-21-34-35-43-24-16-28-16-78,8-29,13-76,42-103,64-28,22-61,45-74,52-51,28-107-18-95-78c10-50,95-135,172-173c52-26,82-34,139-36c93-5,150,20,198,87c59,80,67,131,63,394-4,316-4,317,170,317c181,0,285,31,364,107c79,77,101,194,75,403-18,145-17,224,3,245c10,10,67,22,160,35c230,32,325,68,380,143s61,167,25,409c-17,113-32,149-70,166-39,18-54,15-86-17Z" fill="#0b0b0e"/><g><path d="M19167,17923c-56-16-109-74-134-147-27-79-22-220,10-319c91-280,333-452,500-354c129,76,153,322,52,534-103,218-273,331-428,286Z" fill="#0b0b0e"/><path d="M18275,17757c-60-20-93-45-121-93-136-231,175-633,517-669c217-23,332,138,255,356-76,215-315,401-533,414-50,3-92,0-118-8Z" transform="translate(0 0.000001)" fill="#0b0b0e"/><path d="M17907,17050c-80-20-138-57-174-112-38-56-39-160-4-228c106-203,395-339,640-301c159,25,251,110,251,232c0,179-197,356-455,410-105,22-169,22-258-1Z" fill="#0b0b0e"/><path d="M19759,17011c-25-5-81-19-125-31-94-26-190-44-339-64-192-27-271-59-343-142-41-45-65-103-77-180-9-60,16-164,80-324c31-79,67-184,81-234c64-230,114-338,198-421c61-61,113-87,184-93c99-8,200,53,240,146c26,60,39,138,46,282c14,257,65,340,312,502c186,123,237,190,236,310-1,105-51,175-161,226-46,21-72,25-170,28-64,2-137-1-162-5Z" fill="#0b0b0e"/><path d="M18328,16255c-140-35-263-120-304-210-90-191,90-358,386-357c162,0,306,50,401,139c62,58,88,111,89,179c0,100-74,185-203,233-80,30-280,39-369,16Z" fill="#0b0b0e"/></g><path d="M48713,17504c-22-22-25-31-20-72c3-26,35-126,70-222c90-240,87-222,35-257-24-17-91-56-150-87-59-32-128-76-154-99-40-37-46-47-46-82c0-28,6-44,22-57c49-39,115-17,294,101c61,39,117,71,126,71c21,0,30-20,91-191c61-175,78-210,110-228c52-29,119,12,119,74c0,19-32,123-70,231-39,109-70,204-68,213c2,8,98,71,213,140c189,114,211,129,221,161c13,41,2,85-26,100-47,25-83,12-270-100-101-60-191-110-200-110-16,0-25,24-121,293-39,110-68,147-115,147-24,0-43-8-61-26Z" fill="#0b0b0e"/><path d="M38077,16919c-59-39-118-106-148-167-18-36-23-64-24-124c0-69,3-80,30-120c37-52,109-102,178-123c29-9,122-25,207-36c205-27,269-43,298-75c26-30,27-46,6-166-22-128-16-247,17-312c64-131,165-177,419-191c143-7,213-20,231-41c9-11,13-74,14-222c1-168,4-215,18-250c37-95,97-145,201-167c80-17,365-20,399-4c33,15,53,62,41,97-18,50-55,61-224,65-172,4-215,15-247,63-16,25-18,52-18,244c0,163-3,221-14,240-55,101-174,147-393,151-262,5-310,58-273,296c25,154,23,211-6,264-59,106-146,139-525,197-176,28-218,54-200,126c3,13,44,62,91,108c47,45,88,91,91,100s-2,31-11,48c-14,27-20,30-64,30-36,0-58-7-94-31Z" fill="#0b0b0e"/><path d="M29925,16269c-88-13-153-34-244-80-212-106-379-300-459-532-57-165-57-355,1-492c89-215,305-390,573-467c114-32,334-33,447,0c76,22,182,70,242,111c114,77,219,231,245,358c28,131-10,300-96,425-101,148-252,228-430,228-103,0-191-26-273-81-70-47-107-88-153-173-30-56-33-68-33-151c0-102,18-153,75-218c73-84,191-118,284-83c64,25,133,101,141,158c10,69-22,122-81,134-39,7-70-18-88-71-31-91-133-60-155,48-22,103,66,212,204,252c68,20,145,15,212-15c67-29,156-120,189-193c26-54,29-73,29-157c0-85-3-101-29-152-83-165-282-271-506-271-408,0-732,337-659,685c42,197,223,411,437,518c89,44,169,61,281,59c101-1,133,7,149,39c14,28-5,80-36,96-48,25-180,37-267,25Z" fill="#0b0b0e"/><path d="M2312,15829c-444-54-792-585-687-1046c53-230,229-411,486-497c412-138,850,16,1020,359c89,181,77,363-38,537-167,255-489,323-736,156-114-77-189-214-191-348-1-66,3-84,32-142c37-76,83-120,160-156c77-35,173-29,234,14c117,82,137,246,35,289-22,9-39,10-59,3-33-12-46-32-51-81-5-47-23-67-61-67-41,0-72,22-96,70-38,75-17,163,59,239c103,103,240,123,378,56c83-41,142-101,182-185c22-47,26-68,26-150c0-77-4-104-23-144-136-296-557-416-887-252-207,103-336,311-318,511c23,255,217,536,440,637c34,15,102,35,150,43c71,12,92,20,111,41c49,56,17,102-83,117-11,2-49,0-83-4Z" fill="#0b0b0e"/><path d="M14158,15107c-18-18-55-75-83-127-27-52-71-116-96-142-69-73-104-67-286,45-172,107-245,127-328,93-50-21-127-97-176-174-118-186-152-232-183-251-67-42-126-24-261,78-125,96-168,116-235,115-113-2-198-71-374-302-58-77-122-154-141-171-75-66-127-27-165,124-28,111-39,134-66,141-60,15-90-17-98-105-10-122,78-286,179-332c96-44,226-8,316,87c26,27,92,110,147,185c109,147,160,199,195,199c27,0,62-22,151-93c157-126,292-155,419-90c71,36,122,93,214,239c46,73,99,146,118,163c34,30,37,30,69,17c19-8,60-31,93-52c99-63,223-123,281-135c107-22,198,10,265,94c36,44,130,195,164,262c47,92,24,165-52,165-26,0-43-8-67-33Z" fill="#0b0b0e"/><g transform="translate(.000001 0)"><path d="M57598,15041c-106-34-168-142-168-292c0-194,139-437,300-524c47-26,66-30,131-30c64,0,81,4,111,25c80,54,114,149,106,296-14,255-206,507-404,528-27,3-61,1-76-3Z" transform="translate(.000001 0)" fill="#0b0b0e"/><path d="M56731,14858c-180-31-240-204-141-403c77-155,253-300,420-345c66-18,187-15,238,5c95,38,145,144,124,264-19,104-65,185-161,282-151,151-327,224-480,197Z" transform="translate(.000001 0)" fill="#0b0b0e"/><path d="M56385,14149c-103-16-196-72-229-138-74-147,44-342,271-447c215-101,467-86,574,33c94,104,73,240-57,369-138,137-367,213-559,183Z" fill="#0b0b0e"/><path d="M58243,14138c-35-4-107-19-160-34-144-39-196-50-318-69-265-40-362-91-423-223-54-119-42-203,68-467c32-77,72-189,89-250c75-262,196-423,343-457c56-12,136,6,187,42c84,61,115,159,124,390c11,267,58,343,319,519c155,105,203,167,214,279c5,47,2,68-16,109-26,62-58,93-130,129-61,31-187,44-297,32Z" fill="#0b0b0e"/><path d="M56805,13356c-143-33-256-100-315-187-32-47-35-58-35-125c0-64,3-77,30-116c34-48,115-101,190-124c79-25,245-26,339-3c266,65,406,262,300,420-33,49-111,101-189,125-69,22-244,27-320,10Z" fill="#0b0b0e"/></g><g><path d="M35581,12604c-210-74-391-343-391-581c0-130,45-224,126-264c159-77,385,53,509,291c147,285,72,570-150,569-27,0-70-7-94-15Z" transform="translate(.000001 0)" fill="#0b0b0e"/><path d="M34732,12468c-164-29-283-257-269-512c12-222,113-374,256-384c135-10,254,112,306,313c19,74,20,251,1,320-49,186-162,287-294,263Z" fill="#0b0b0e"/><path d="M36198,12073c-34-7-101-31-148-54-115-57-241-181-294-289-73-149-70-263,7-347c109-119,345-88,542,70c188,151,275,368,204,514-47,97-163,136-311,106Z" fill="#0b0b0e"/><path d="M35025,11490c-141-31-303-58-390-65-166-12-318-64-411-140-91-75-119-200-68-303c48-96,106-129,324-183c297-75,359-129,485-429c78-187,161-260,293-260c72,0,126,25,176,80c71,79,108,198,107,343-4,353-11,659-16,695-16,106-94,212-188,253-73,32-193,35-312,9Z" fill="#0b0b0e"/><path d="M36042,11175c-204-46-382-207-382-345c1-232,370-322,671-164c267,141,293,402,49,496-71,27-246,34-338,13Z" fill="#0b0b0e"/></g><g><path d="M24393,12429c-58-17-140-103-182-193-52-109-65-170-65-306-1-91,4-130,21-185c31-97,79-172,137-214c65-47,151-55,220-22c101,49,190,190,222,351c47,238-42,502-192,565-40,16-111,18-161,4Z" fill="#0b0b0e"/><path d="M23589,12350c-182-32-261-320-162-593c68-189,196-318,334-334c100-12,194,56,239,173c31,78,34,264,7,364-68,248-251,419-418,390Z" fill="#0b0b0e"/><path d="M25052,11791c-241-83-426-427-356-662c28-92,113-159,205-159c47,0,127,30,189,72c213,142,332,477,234,658-55,101-151,133-272,91Z" fill="#0b0b0e"/><path d="M23035,11588c-245-86-157-488,149-689c192-126,395-95,442,69c50,171-77,423-280,554-103,66-232,94-311,66Z" fill="#0b0b0e"/><path d="M24121,11268c-116-20-189-84-306-268-43-69-104-158-134-198-31-40-77-101-103-135-140-184-185-366-123-493c31-63,79-101,153-119c85-22,167-3,282,68c36,22,99,61,141,87c174,107,270,110,526,16c175-64,246-75,324-52c112,32,175,121,173,241-3,145-92,270-338,475-48,41-122,112-165,158-166,184-287,246-430,220Z" fill="#0b0b0e"/></g><path d="M43830,12352c-40-32-37-83,14-234c25-75,46-153,46-173c0-84-46-117-245-175-125-36-218-81-244-119-55-78-52-185,9-396c77-269,56-307-206-360-169-35-218-61-259-140-28-55-30-65-29-164c1-74,11-153,33-261c39-195,43-237,26-277-25-59-77-54-213,18-82,43-120,49-147,19-71-78,93-220,272-234c69-5,150,18,189,55c89,83,103,211,49,454-19,83-37,179-40,215-6,57-4,68,14,91c22,28,38,33,201,64c205,39,311,139,326,308c5,50,0,85-25,177-17,63-41,154-52,202-30,122-28,125,143,179c278,86,362,153,375,298c9,92-79,395-128,444-32,32-76,36-109,9Z" fill="#0b0b0e"/><g><path d="M9018,10976c-200-72-369-322-370-551-2-228,159-327,363-225c179,91,324,343,314,548-7,152-86,242-209,242-34-1-77-7-98-14Z" fill="#0b0b0e"/><path d="M9788,10705c-193-56-366-203-429-365-30-75-31-171-2-225c26-50,47-69,105-95c234-103,625,103,717,378c81,241-108,390-391,307Z" fill="#0b0b0e"/><path d="M8222,10158c-63-9-137-45-174-85-84-88-76-241,18-352c16-19,79-76,140-127c125-104,163-147,199-227c35-76,48-158,41-255-19-234-2-343,61-413c52-58,106-83,178-83c151-2,289,130,390,369c75,179,95,222,160,340c117,215,133,326,64,455-60,114-126,151-391,221-81,21-198,58-260,82-186,73-304,93-426,75Z" fill="#0b0b0e"/><path d="M10055,9985c-150-23-266-77-357-167-71-69-99-127-99-208-2-289,535-347,824-89c107,95,140,225,83,323-68,116-248,172-451,141Z" fill="#0b0b0e"/><path d="M9493,9250c-104-22-191-78-225-143-59-116-2-252,145-345c114-71,222-103,357-103c170,0,294,55,348,156c24,44,21,140-5,191-49,93-171,182-308,224-79,24-244,35-312,20Z" fill="#0b0b0e"/></g><path d="M50505,10919c-33-4-190-23-350-43-159-20-382-47-495-61-549-67-632-89-615-164c7-32,19-51,260-426c81-126,247-387,368-580c351-558,437-680,496-705c65-27,82,2,132,226c90,402,338,1554,355,1646c16,93-25,123-151,107Zm-48-206c-5-19-10-40-52-243-113-543-239-1097-265-1165l-11-30-81,125c-45,69-206,319-358,555-152,237-302,469-333,517-32,48-57,92-57,97s21,14,48,19c66,15,371,59,597,87c72,8,195,24,275,34c80,11,167,19,193,20c41,1,48-2,44-16Z" fill="#0b0b0e"/><path d="M17355,10020c-41-7-61-52-75-165-28-239-44-341-52-352-12-15-74-21-248-26-110-3-145-8-183-25-26-12-50-28-53-36-12-30-11-52,2-78c24-46,112-59,266-38c137,18,161,19,180,9c22-12,22,2-7-224-23-178-24-198-9-226c16-32,62-50,101-40c45,11,59,56,87,286c14,115,29,212,34,216c8,8,74,14,377,34c50,4,99,9,110,12c65,17,88,98,40,143-24,23-26,23-187,15-90-4-197-8-238-9l-75-1-1,43c0,24,5,85,13,135c24,166,28,273,10,300-17,27-47,36-92,27Z" fill="#0b0b0e"/><g><path d="M2085,9570c-107-23-199-135-240-290-25-92-23-252,4-353c89-340,385-416,527-136c103,204,77,511-57,680-56,71-159,114-234,99Z" fill="#0b0b0e"/><path d="M2890,9441c-124-38-251-183-310-357-46-133-47-306-1-409c23-52,75-111,115-132c50-26,143-22,208,10c314,154,409,767,136,881-39,17-106,20-148,7Z" fill="#0b0b0e"/><path d="M1334,8951c-82-38-124-125-124-258c0-108,12-157,67-271c95-199,290-331,433-292c181,49,214,336,68,585-115,194-311,299-444,236Z" fill="#0b0b0e"/><path d="M3314,8650c-164-52-324-213-385-386-16-46-20-77-17-145c3-80,6-91,34-126c16-21,50-48,75-61c38-20,55-23,125-20c70,4,93,10,166,45c199,96,348,306,348,490-1,184-143,267-346,203Z" fill="#0b0b0e"/><path d="M2282,8384c-94-24-145-61-317-224-57-54-144-128-193-164-123-90-232-207-272-291-60-125-51-240,24-317c55-57,99-73,196-73c75,0,102,6,235,50c140,47,157,50,250,50c90,0,107-3,164-30c36-16,105-58,155-94c180-127,263-160,362-142c124,23,196,117,195,252-1,132-55,260-175,423-69,92-93,130-213,338-27,45-71,105-100,134-82,83-200,117-311,88Z" fill="#0b0b0e"/></g><path d="M57516,9105c-26-28-33-55-41-160-12-158-17-190-35-225-10-19-29-41-42-48-34-19-111-21-219-7-237,31-322,7-379-108-32-65-49-142-73-329-16-123-38-173-87-200-46-24-94-23-238,7-150,31-184,31-249,1-95-45-146-150-203-421-38-178-55-232-83-262-43-47-96-20-192,97-67,81-96,95-141,65-74-48,33-242,175-314c88-46,195-37,266,21c75,62,108,142,150,362c33,172,59,257,85,281s61,23,175-5c100-24,219-29,280-12c101,29,178,109,211,217c8,28,24,119,35,204c21,162,36,213,66,229c19,9,87,7,188-8c33-5,106-7,161-6c88,2,109,6,158,30c116,57,144,129,172,452c7,80-7,138-36,154-34,18-79,12-104-15Z" fill="#0b0b0e"/><path d="M29403,8182c-13-2-31-14-42-28-21-27-28-75-36-264-7-151-13-211-24-222-3-4-86,12-183,36-197,50-241,57-279,44-27-9-49-44-49-79c0-58,37-75,300-139c96-23,183-47,193-52c21-11,22-69,6-243-14-140-7-205,25-242c27-31,77-34,107-7s40,79,46,249c3,88,9,167,14,176c10,20,33,16,232-36c172-45,213-47,244-11c29,34,29,78,1,111-19,21-56,34-234,79-117,29-217,57-224,61-12,8-11,104,6,410c3,62,1,97-8,114-15,28-62,49-95,43Z" fill="#0b0b0e"/><path d="M35852,7163c-32-13-42-65-58-285-9-123-21-228-26-235-13-16-91-30-203-38-185-12-266-39-280-92-10-41,12-80,53-94c42-14,165-7,274,16c43,9,92,15,110,13l33-3-1-75c0-41-4-140-9-220-7-140-6-146,14-167c22-23,34-27,81-25c28,1,70,44,70,71c0,16,6,93,26,356c3,44,8,83,10,86c2,4,30,10,61,13c198,24,427,58,442,66c47,25,59,96,23,132-28,29-81,29-282,2-96-13-188-23-204-24h-29l9,143c5,78,9,184,9,235c0,86-2,95-24,113s-70,24-99,12Z" fill="#0b0b0e"/><g><path d="M46453,4769c-206-102-298-500-173-755c173-355,557-126,558,334c0,199-78,371-193,423-55,25-139,24-192-2Z" fill="#0b0b0e"/><path d="M45635,4697c-113-52-177-192-170-372c7-167,74-334,178-438c77-78,141-110,219-109c94,1,154,42,201,137c120,242-5,649-235,766-53,27-151,35-193,16Z" fill="#0b0b0e"/><path d="M47133,4141c-140-48-266-182-335-355-28-73-32-92-32-191-1-104,1-113,29-165c41-74,95-105,185-105c54,0,77,6,133,33c308,152,440,659,203,777-59,30-111,31-183,6Z" fill="#0b0b0e"/><path d="M45135,3951c-223-55-216-369,14-601c307-309,663-178,540,198-79,241-365,449-554,403Z" fill="#0b0b0e"/><path d="M46174,3617c-108-28-172-91-309-302-54-82-126-184-160-225s-80-103-103-137c-153-238-128-476,58-538c104-35,200-8,366,100c226,147,327,164,532,89c274-100,305-106,398-79c73,21,146,89,163,150c44,161-45,331-276,524-60,49-167,150-239,224-104,107-143,140-195,166-76,37-160,47-235,28Z" fill="#0b0b0e"/></g><g><path d="M14374,4391c-18-4-48-18-68-30-109-68-128-257-43-440c68-149,219-295,353-342c60-21,176-25,221-8c107,40,159,193,118,349-46,179-188,354-345,429-90,42-175,58-236,42Z" fill="#0b0b0e"/><path d="M15252,4359c-97-49-154-178-154-350c0-266,170-519,350-521c276-2,340,509,98,789-81,93-205,128-294,82Z" fill="#0b0b0e"/><path d="M13820,3771c-197-60-224-273-59-471c166-200,473-299,650-209c185,93,138,370-94,545-74,56-201,118-275,133-59,12-184,13-222,2Z" fill="#0b0b0e"/><path d="M14989,3357c-103-30-172-89-217-187-35-75-34-193,2-389c15-79,29-193,32-255c12-223,59-378,146-472c81-89,193-112,294-61c93,47,132,114,185,312c42,159,76,233,141,301c65,69,99,89,263,154c72,28,146,61,165,72c209,124,195,373-26,475-87,39-184,55-329,53-71-1-152-2-180-3-27,0-135,3-240,6-143,5-201,4-236-6Z" fill="#0b0b0e"/><path d="M14092,2908c-195-22-322-125-322-259c0-176,218-319,488-319c186,0,327,62,385,169c119,218-194,451-551,409Z" fill="#0b0b0e"/></g><path d="M21745,4275c-335-64-628-327-712-639-22-82-21-241,1-325c35-130,118-262,232-372c132-126,286-207,454-239c78-15,261-13,336,5c191,44,343,155,420,307c81,160,66,388-35,545-77,119-172,188-307,224-176,46-352-5-472-136-69-75-95-147-90-240c8-122,64-212,164-261c47-23,63-26,114-21c139,12,232,122,185,220-32,68-107,69-146,2-71-120-184,28-119,156c23,45,91,93,155,110c67,19,174,6,234-26c170-93,242-316,157-489-114-233-448-304-746-159-80,40-109,61-185,137-103,104-156,194-180,311-19,89-18,134,0,214c26,108,77,191,174,284c198,187,469,275,671,217c111-32,146-35,175-16c18,12,25,25,25,50c0,108-277,185-505,141Z" fill="#0b0b0e"/><path d="M39969,4194c-10-25-6-328,6-462c1-18,5-133,9-255s8-265,11-317c2-52,7-189,10-305c10-376,20-540,40-639c24-114,64-134,137-68c52,47,1047,1122,1241,1341c71,80,59,136-41,178-20,8-274,118-563,243-602,261-702,300-781,308-56,5-58,4-69-24Zm375-275c316-127,876-372,876-383c0-13-674-747-887-965-67-69-124-124-126-121-3,3-8,88-11,190-4,102-9,221-11,265-4,76-8,161-20,465-3,74-7,180-10,235s-8,165-11,244l-6,144l28-7c16-4,96-34,178-67Z" fill="#0b0b0e"/><path d="M57415,3647c-18-28-17-24-105-557-38-234-90-542-115-685-117-679-127-804-61-821c47-11,19-30,866,579c680,490,742,536,756,566c19,37-2,78-60,122-79,60-857,603-991,692-199,132-258,153-290,104Zm367-375c330-220,723-499,723-514c0-11-225-178-665-492-335-240-529-371-537-363-3,4,6,78,20,164c24,142,67,405,127,778c60,371,92,560,96,566c6,10,67-26,236-139Z" fill="#0b0b0e"/><path d="M7992,3584c-230-78-384-280-383-503c0-98,13-156,55-239c81-159,259-266,411-247c264,33,382,356,177,486-80,51-142,51-193-1-55-55-30-124,51-138c33-6,48-14,59-34c14-24,14-30-1-62-21-42-81-76-135-76-118,1-237,134-250,280-17,181,151,367,345,384c203,17,408-165,466-414c20-84,20-256,0-340-53-228-236-422-438-465-124-26-258-2-394,70-112,60-203,134-274,223-93,117-132,210-144,338-5,51-13,83-26,99-37,47-108,23-124-41-13-51,3-208,29-283c92-263,344-483,646-563c102-27,280-29,371-5c252,67,444,280,522,579c29,110,32,331,5,427-45,163-103,266-212,376-84,85-181,143-275,164-84,19-208,13-288-15Z" fill="#0b0b0e"/><path d="M52117,3485c-137-35-274-138-335-253-103-193-76-423,67-569c69-70,137-98,236-97c123,1,219,54,267,148c43,82,20,213-46,275-67,63-186,34-186-46c0-26,9-43,40-73c37-36,39-41,29-70-22-62-111-79-185-35-139,82-145,323-10,454c75,73,207,119,302,106c209-28,346-202,345-440c0-259-147-496-381-619-254-133-510-77-687,148-177,227-231,527-133,743c43,95,41,145-6,164-63,23-137-59-182-201-30-96-34-123-34-234c1-380,278-759,623-852c43-12,99-17,170-17c90,1,119,5,200,33c370,123,634,508,606,881-21,263-153,459-365,539-75,29-250,37-335,15Z" fill="#0b0b0e"/><path d="M35104,2959c-35-17-53-63-80-195-26-132-46-185-84-219-31-28-99-24-258,15-142,35-242,41-289,16-79-40-133-142-182-342-65-261-112-289-354-204-199,69-263,64-350-29-56-60-92-129-151-296-26-71-58-158-72-193-30-71-72-113-105-105-31,9-81,62-124,135-53,88-63,98-100,98-139,0-46-270,124-357c109-57,202-42,292,44c52,50,80,107,142,288c65,190,78,221,107,258s51,35,209-19c126-44,139-46,215-42c97,5,163,35,220,98c51,56,68,98,116,280c42,157,51,182,78,213c20,23,36,22,182-13c177-42,279-48,352-21c62,24,120,79,145,139c29,70,74,259,80,338s5,81-22,102c-30,24-57,27-91,11Z" transform="translate(.000001 0)" fill="#0b0b0e"/><path d="M27712,2864c-29-20-58-78-117-233-57-152-84-211-96-211-11,0-15,2-194,118-196,126-247,137-279,60-28-66-1-97,189-213c218-135,218-134,212-175-2-19-26-82-52-140-92-204-105-271-60-315c31-32,66-32,103,0c35,29,63,86,107,215c38,113,61,160,78,160c7,0,55-28,107-62c165-107,253-158,271-158c69,0,113,81,74,137-8,12-98,74-200,139-126,80-185,123-185,135c0,10,38,115,85,233c47,119,85,227,85,242c0,32-50,84-82,84-13,0-34-7-46-16Z" fill="#0b0b0e"/><path d="M1564,2745c-82-34-74-79,55-294c128-215,128-214,108-244-8-13-71-68-138-123-122-98-179-165-179-210c0-35,37-74,71-74c50,0,104,36,225,150c63,61,119,110,123,110c16,0,51-50,135-193c48-82,96-157,107-168c28-28,84-25,114,6c45,44,36,72-89,285-63,107-112,199-108,206c4,6,75,70,157,143c205,181,215,192,215,239c0,72-69,104-135,64-16-10-83-66-147-125-119-107-180-157-191-157-8,0-61,83-141,222-88,154-125,187-182,163Z" fill="#0b0b0e"/></g></svg>
