<svg id="visual" viewBox="0 0 2000 200" width="2000" height="200" xmlns="http://www.w3.org/2000/svg" xmlns:xlink="http://www.w3.org/1999/xlink" version="1.1"><g><g transform="translate(1114 133)"><path d="M69.6 -19.6C79 6.6 68 42.4 44.4 59C20.9 75.6 -15.1 73 -36.5 56C-58 39.1 -65 7.8 -56.5 -17.1C-48 -41.9 -24 -60.5 3 -61.5C30 -62.5 60.1 -45.9 69.6 -19.6Z" fill="#274f4a"></path></g><g transform="translate(191 64)"><path d="M54.5 -19.7C61.8 4.8 52.9 32.7 33.1 47.5C13.3 62.3 -17.3 64.1 -39.1 49.3C-60.9 34.5 -73.9 3.1 -65.9 -22.3C-58 -47.7 -29 -67.1 -2.7 -66.2C23.6 -65.3 47.2 -44.2 54.5 -19.7Z" fill="#274f4a"></path></g><g transform="translate(932 19)"><path d="M50.9 -16.4C57.8 4.8 49.7 31.1 31.9 44.1C14.1 57.1 -13.5 56.8 -29.6 44.2C-45.7 31.7 -50.3 6.9 -43.5 -14.1C-36.6 -35.2 -18.3 -52.5 1.8 -53.1C22 -53.7 43.9 -37.6 50.9 -16.4Z" fill="#274f4a"></path></g><g transform="translate(1676 163)"><path d="M18.3 -5.7C20.8 1.9 18 11.5 11.9 15.8C5.7 20.2 -3.9 19.4 -9.9 14.8C-16 10.1 -18.5 1.7 -16.2 -5.6C-14 -12.8 -7 -18.7 0.4 -18.9C7.9 -19 15.7 -13.3 18.3 -5.7Z" fill="#274f4a"></path></g><g transform="translate(687 43)"><path d="M42.3 -15.1C47.3 1.7 38.7 21.6 23.5 32.8C8.2 43.9 -13.7 46.4 -28.2 36.4C-42.8 26.4 -50 3.9 -44.1 -14.2C-38.2 -32.3 -19.1 -45.9 -0.2 -45.9C18.6 -45.8 37.2 -32 42.3 -15.1Z" fill="#274f4a"></path></g><g transform="translate(1442 135)"><path d="M48.5 -15C54.8 3.4 46.1 27.5 29.2 39.7C12.2 51.9 -13 52.3 -29.1 40.4C-45.3 28.6 -52.3 4.7 -46 -14C-39.6 -32.6 -19.8 -46 0.7 -46.2C21.2 -46.4 42.3 -33.5 48.5 -15Z" fill="#274f4a"></path></g><g transform="translate(381 165)"><path d="M32.1 -8.9C37 4.8 33.4 22.9 21.9 31.5C10.4 40.2 -8.8 39.5 -22 30C-35.1 20.5 -42.1 2.3 -37.4 -11.1C-32.7 -24.5 -16.3 -33.1 -1.4 -32.6C13.6 -32.2 27.1 -22.7 32.1 -8.9Z" fill="#274f4a"></path></g><g transform="translate(1882 78)"><path d="M53 -16.2C60.7 6.7 53.6 35.4 33.5 51.2C13.4 67 -19.8 70 -41.9 54.7C-64 39.3 -75 5.7 -66.2 -18.7C-57.3 -43 -28.7 -58.1 -3 -57.1C22.6 -56.1 45.2 -39.1 53 -16.2Z" fill="#274f4a"></path></g></g></svg>