<svg id="visual" viewBox="0 0 2000 60" width="2000" height="60" xmlns="http://www.w3.org/2000/svg" xmlns:xlink="http://www.w3.org/1999/xlink" version="1.1"><rect width="2000" height="60" fill="#001220"></rect><g><g transform="translate(710 27)"><path d="M21.5 -12.4C25.8 -5 25.7 4.9 21.4 12.2C17.1 19.5 8.6 24.2 -0.1 24.2C-8.8 24.3 -17.5 19.7 -21.4 12.6C-25.3 5.6 -24.4 -4 -20 -11.5C-15.7 -18.9 -7.8 -24.3 0.4 -24.5C8.6 -24.7 17.2 -19.8 21.5 -12.4Z" fill="#274f4a"></path></g><g transform="translate(1772 33)"><path d="M12.4 -7.3C14.7 -3.1 14.4 2.6 11.9 6.8C9.4 11 4.7 13.9 0 13.9C-4.7 13.9 -9.4 11 -11.8 6.8C-14.3 2.6 -14.5 -2.9 -12.1 -7.2C-9.8 -11.5 -4.9 -14.5 0.1 -14.5C5 -14.6 10 -11.6 12.4 -7.3Z" fill="#274f4a"></path></g><g transform="translate(1885 29)"><path d="M10.6 -6C12.7 -2.5 12.6 2.3 10.5 5.8C8.3 9.2 4.2 11.2 0.1 11.2C-4 11.2 -8.1 9.1 -10.1 5.7C-12.2 2.3 -12.3 -2.4 -10.3 -5.9C-8.3 -9.3 -4.1 -11.4 0.1 -11.4C4.3 -11.5 8.6 -9.5 10.6 -6Z" fill="#274f4a"></path></g><g transform="translate(120 29)"><path d="M6.3 -3.6C7.5 -1.5 7.4 1.4 6.2 3.6C4.9 5.8 2.5 7.3 0.1 7.3C-2.4 7.3 -4.7 5.7 -6 3.5C-7.3 1.2 -7.5 -1.6 -6.3 -3.7C-5.1 -5.8 -2.6 -7.1 0 -7.1C2.5 -7.1 5 -5.7 6.3 -3.6Z" fill="#274f4a"></path></g><g transform="translate(224 29)"><path d="M17.4 -10C21 -3.8 21.3 4.3 17.8 10.6C14.4 16.9 7.2 21.4 0.1 21.3C-7.1 21.3 -14.1 16.8 -17.6 10.5C-21 4.2 -20.9 -3.9 -17.3 -10C-13.8 -16.2 -6.9 -20.5 0 -20.5C6.9 -20.5 13.8 -16.2 17.4 -10Z" fill="#274f4a"></path></g><g transform="translate(587 28)"><path d="M12.7 -7.1C15.3 -3 15.3 2.9 12.7 7.3C10.2 11.6 5.1 14.4 0 14.4C-5.1 14.4 -10.1 11.6 -12.5 7.4C-14.8 3.2 -14.4 -2.5 -11.9 -6.6C-9.3 -10.7 -4.7 -13.4 0.2 -13.5C5.1 -13.6 10.2 -11.2 12.7 -7.1Z" fill="#274f4a"></path></g><g transform="translate(970 27)"><path d="M5.2 -3.1C6.3 -1.2 6.4 1.3 5.3 3.2C4.3 5.1 2.1 6.4 0 6.4C-2.1 6.4 -4.3 5.1 -5.3 3.2C-6.4 1.3 -6.3 -1.2 -5.2 -3.1C-4.2 -5.1 -2.1 -6.5 0 -6.5C2.1 -6.5 4.2 -5.1 5.2 -3.1Z" fill="#274f4a"></path></g></g></svg>