<svg id="visual" viewBox="0 0 2000 205" width="2000" height="205" xmlns="http://www.w3.org/2000/svg" xmlns:xlink="http://www.w3.org/1999/xlink" version="1.1"><g><g transform="translate(1614 178)"><path d="M65.5 -30.4C82.5 -8.5 92 25.1 79.9 43.5C67.7 62 33.9 65.4 0.4 65.1C-33 64.8 -66 61 -81.6 40.5C-97.2 20 -95.5 -17.1 -79 -38.7C-62.5 -60.4 -31.3 -66.7 -3.5 -64.6C24.3 -62.6 48.6 -52.3 65.5 -30.4Z" fill="#274f4a"></path></g><g transform="translate(933 113)"><path d="M26.9 -14.9C32.1 -6.5 31.6 5.7 26.2 14.2C20.8 22.8 10.4 27.6 -0.4 27.8C-11.2 28 -22.5 23.8 -29.9 14.1C-37.2 4.5 -40.8 -10.6 -35.1 -19.2C-29.5 -27.8 -14.8 -30 -2 -28.9C10.9 -27.7 21.7 -23.3 26.9 -14.9Z" fill="#274f4a"></path></g><g transform="translate(391 73)"><path d="M56.4 -28.5C66.7 -14.8 64.1 10.4 52.6 24.5C41.1 38.6 20.5 41.6 3.1 39.8C-14.4 38.1 -28.9 31.5 -35.5 20.3C-42.1 9 -40.8 -6.9 -33.6 -18.9C-26.4 -30.8 -13.2 -38.8 4.9 -41.6C23.1 -44.5 46.1 -42.2 56.4 -28.5Z" fill="#274f4a"></path></g><g transform="translate(156 179)"><path d="M21.6 -13.5C24.7 -7.1 21.7 1.8 17.1 10.1C12.4 18.4 6.2 26.1 -0.4 26.3C-7 26.5 -14 19.3 -18.8 10.9C-23.6 2.6 -26.2 -7 -22.7 -13.7C-19.2 -20.4 -9.6 -24.2 -0.2 -24C9.2 -23.9 18.5 -20 21.6 -13.5Z" fill="#274f4a"></path></g><g transform="translate(1998 89)"><path d="M35.1 -19.9C42 -8.3 41.7 7.8 34.7 20.8C27.6 33.8 13.8 43.7 -4.9 46.5C-23.5 49.3 -47.1 45 -59 29.2C-71 13.4 -71.3 -14 -59.6 -28.4C-47.8 -42.8 -23.9 -44.3 -4.9 -41.5C14.1 -38.7 28.2 -31.5 35.1 -19.9Z" fill="#274f4a"></path></g><g transform="translate(1303 47)"><path d="M17.9 -12.8C21.8 -3.5 22.8 5.1 19.3 14.2C15.8 23.4 7.9 33 -1.9 34.1C-11.7 35.2 -23.4 27.7 -28.6 17.6C-33.7 7.5 -32.4 -5.2 -26.6 -15.6C-20.7 -26.1 -10.4 -34.2 -1.7 -33.2C7 -32.2 13.9 -22.1 17.9 -12.8Z" fill="#274f4a"></path></g><g transform="translate(620 180)"><path d="M79.4 -42.2C95.6 -17.6 96.6 19.3 80.8 47.8C65.1 76.2 32.5 96 4.7 93.3C-23.1 90.6 -46.3 65.3 -61.4 37.3C-76.5 9.3 -83.5 -21.5 -71.9 -43.3C-60.3 -65.1 -30.2 -78 0.7 -78.4C31.5 -78.8 63.1 -66.7 79.4 -42.2Z" fill="#274f4a"></path></g></g></svg>