<svg id="visual" viewBox="0 0 1000 3000" width="1000" height="3000" xmlns="http://www.w3.org/2000/svg" xmlns:xlink="http://www.w3.org/1999/xlink" version="1.1"><rect width="1000" height="3000" fill="#fff"></rect><g><g transform="translate(48 1964)"><path d="M69.1 -27.9C74.1 -6.9 52.2 17.4 30.9 29.8C9.6 42.3 -11 42.9 -30 31.4C-49 19.9 -66.3 -3.6 -61.1 -24.9C-55.8 -46.2 -27.9 -65.1 2.1 -65.8C32 -66.4 64.1 -48.8 69.1 -27.9Z" fill="#fcf08b"></path></g><g transform="translate(656 1977)"><path d="M50.3 -24.4C56.4 2.4 46.4 26.3 23.3 46.5C0.2 66.6 -36.1 83.1 -55.1 70.5C-74.1 58 -75.9 16.4 -63.8 -18.6C-51.8 -53.6 -25.9 -82 -1.9 -81.4C22.1 -80.8 44.2 -51.2 50.3 -24.4Z" fill="#fcf08b"></path></g><g transform="translate(213 2616)"><path d="M20.9 -7.7C22.9 -0.9 17.2 7.4 11.2 10.6C5.2 13.9 -1 12 -8.5 7.5C-15.9 3.1 -24.5 -3.8 -23.3 -9.6C-22 -15.4 -11 -20.1 -0.8 -19.9C9.5 -19.6 19 -14.5 20.9 -7.7Z" fill="#fcf08b"></path></g><g transform="translate(645 2462)"><path d="M30.5 -8.8C34.3 1.8 28.5 16.6 14.2 29.3C-0.1 41.9 -23 52.5 -32.8 45.3C-42.7 38.2 -39.5 13.2 -31.8 -2.6C-24.2 -18.5 -12.1 -25.2 0.6 -25.4C13.3 -25.6 26.7 -19.3 30.5 -8.8Z" fill="#fcf08b"></path></g><g transform="translate(681 2750)"><path d="M40.5 -20.8C45.5 2.4 37.9 22.1 19.6 38C1.2 54 -27.9 66.2 -38.6 57.5C-49.2 48.7 -41.4 18.9 -31.8 -10.4C-22.3 -39.7 -11.2 -68.6 3.3 -69.6C17.7 -70.7 35.4 -44 40.5 -20.8Z" fill="#fcf08b"></path></g><g transform="translate(927 1795)"><path d="M22.8 -6.7C25.2 0 19.9 10 13.6 13.3C7.3 16.6 0.1 13.2 -6.8 8.4C-13.8 3.6 -20.4 -2.6 -19.2 -7.7C-18 -12.7 -9 -16.7 0.6 -16.9C10.2 -17.1 20.4 -13.5 22.8 -6.7Z" fill="#fcf08b"></path></g><g transform="translate(774 1104)"><path d="M10 -1.6C13.1 6.4 15.9 16.1 13.3 17.9C10.6 19.7 2.6 13.7 -4.7 8.1C-11.9 2.4 -18.3 -2.8 -17.4 -7.8C-16.4 -12.8 -8.2 -17.5 -2.4 -16.7C3.4 -15.9 6.8 -9.6 10 -1.6Z" fill="#fcf08b"></path></g><g transform="translate(385 1465)"><path d="M13.5 -2.8C15.6 1.8 13.9 9.3 9 13C4.1 16.6 -3.9 16.5 -10.2 12.3C-16.5 8.2 -21 -0.1 -19 -4.7C-17.1 -9.3 -8.5 -10.3 -1.4 -9.9C5.8 -9.4 11.5 -7.5 13.5 -2.8Z" fill="#fcf08b"></path></g><g transform="translate(366 415)"><path d="M52.2 -17.2C64.1 19.9 68 59.3 51.8 71.1C35.5 82.8 -0.7 66.9 -33.1 43.8C-65.5 20.7 -94 -9.6 -87.8 -38.7C-81.6 -67.8 -40.8 -95.8 -10.4 -92.4C20.1 -89 40.2 -54.3 52.2 -17.2Z" fill="#fcf08b"></path></g><g transform="translate(319 2249)"><path d="M6.4 -0.8C7.9 2.5 8.5 7.5 6.4 9.1C4.2 10.8 -0.6 9.1 -4.5 6.2C-8.5 3.4 -11.5 -0.7 -10.6 -3.2C-9.7 -5.8 -4.9 -6.9 -1.2 -6.5C2.5 -6.1 4.9 -4.2 6.4 -0.8Z" fill="#fcf08b"></path></g><g transform="translate(306 1027)"><path d="M14.3 -5C16.4 1.8 14.5 9.5 8.5 14.4C2.6 19.3 -7.3 21.5 -13.1 17.4C-19 13.3 -20.8 3 -18 -4.9C-15.1 -12.8 -7.5 -18.1 -0.7 -17.9C6.1 -17.7 12.2 -11.8 14.3 -5Z" fill="#fcf08b"></path></g><g transform="translate(757 1415)"><path d="M50 -10.4C56.2 2.6 46.5 26.6 31.5 35.6C16.6 44.6 -3.6 38.6 -22.6 26C-41.6 13.4 -59.4 -5.9 -55.5 -15.8C-51.5 -25.8 -25.8 -26.4 -1.9 -25.8C22 -25.2 43.9 -23.3 50 -10.4Z" fill="#fcf08b"></path></g><g transform="translate(53 50)"><path d="M39.7 -12.5C44 0.5 35 18.2 21.3 27.8C7.5 37.5 -11.1 39.2 -19.5 31.9C-27.9 24.6 -26.1 8.4 -21.1 -5.4C-16.2 -19.2 -8.1 -30.5 4.8 -32.1C17.7 -33.6 35.4 -25.4 39.7 -12.5Z" fill="#fcf08b"></path></g><g transform="translate(604 795)"><path d="M34.5 -7.8C38.6 1.6 31.8 18 21.8 23.9C11.7 29.8 -1.6 25.2 -9.6 18.2C-17.6 11.2 -20.2 1.9 -17.7 -5.2C-15.2 -12.3 -7.6 -17.3 3.8 -18.5C15.2 -19.7 30.3 -17.2 34.5 -7.8Z" fill="#fcf08b"></path></g><g transform="translate(366 2955)"><path d="M63.5 -15C71.6 4.3 60.1 35.6 41 47.2C22 58.8 -4.5 50.8 -27.1 34.9C-49.7 19 -68.4 -4.6 -63.3 -19.9C-58.1 -35.2 -29 -42 -0.7 -41.8C27.7 -41.6 55.4 -34.3 63.5 -15Z" fill="#fcf08b"></path></g><g transform="translate(962 824)"><path d="M53.2 -19.7C58.5 -1.1 45 21.2 24.5 36.9C3.9 52.6 -23.8 61.7 -34.4 52.7C-45 43.8 -38.5 16.7 -29.9 -6.5C-21.3 -29.7 -10.7 -49 6.7 -51.2C24 -53.4 48 -38.4 53.2 -19.7Z" fill="#fcf08b"></path></g><g transform="translate(585 44)"><path d="M14 -5.5C15.9 1.3 13.7 8.5 8.3 12.6C3 16.7 -5.3 17.8 -9.9 14.3C-14.4 10.8 -15.2 2.8 -12.9 -4.5C-10.6 -11.9 -5.3 -18.6 0.4 -18.7C6.1 -18.9 12.1 -12.4 14 -5.5Z" fill="#fcf08b"></path></g><g transform="translate(860 2205)"><path d="M42.8 -15.2C48.9 5 42.9 27.9 24.1 44.2C5.3 60.4 -26.3 70.1 -47.6 56.7C-68.9 43.3 -79.9 6.9 -70.2 -18.1C-60.6 -43.2 -30.3 -56.8 -6 -54.8C18.3 -52.9 36.6 -35.4 42.8 -15.2Z" fill="#fcf08b"></path></g><g transform="translate(958 2567)"><path d="M19.8 -7C21.5 -1.2 15.9 6.5 9.2 10.9C2.6 15.4 -5.2 16.6 -9.9 13.3C-14.6 9.9 -16.2 2.1 -14.1 -4.4C-11.9 -10.9 -6 -15.9 1.5 -16.4C9.1 -16.9 18.1 -12.9 19.8 -7Z" fill="#fcf08b"></path></g><g transform="translate(231 1719)"><path d="M64.3 -11.5C72.5 4.3 60.8 36 43.7 44.8C26.5 53.7 3.9 39.7 -20.1 23.3C-44.2 6.8 -69.7 -12 -66.6 -20.8C-63.5 -29.6 -31.7 -28.3 -1.8 -27.7C28.1 -27.1 56.1 -27.2 64.3 -11.5Z" fill="#fcf08b"></path></g><g transform="translate(909 116)"><path d="M24 -5.1C28 4.6 26.1 18.9 17.3 25.7C8.5 32.6 -7.1 31.9 -18.6 23.9C-30.2 15.9 -37.7 0.6 -33.9 -8.7C-30.1 -18 -15.1 -21.3 -2.5 -20.5C10 -19.7 20 -14.7 24 -5.1Z" fill="#fcf08b"></path></g><g transform="translate(53 1266)"><path d="M31.3 -8.8C37.4 8.6 37 29.6 23.8 41.2C10.5 52.8 -15.6 55.1 -32.9 43C-50.3 31 -58.8 4.6 -51.8 -14.1C-44.9 -32.7 -22.4 -43.5 -4.9 -41.9C12.6 -40.3 25.2 -26.3 31.3 -8.8Z" fill="#fcf08b"></path></g><g transform="translate(87 528)"><path d="M19.9 -7.8C21.8 -0.7 16.5 7.4 11.2 10C5.9 12.5 0.6 9.5 -2.8 6.5C-6.1 3.4 -7.4 0.3 -6.6 -5.3C-5.8 -11 -2.9 -19.1 3.1 -20.1C9 -21.1 18.1 -14.9 19.9 -7.8Z" fill="#fcf08b"></path></g><g transform="translate(918 540)"><path d="M8.2 -3.6C9.5 1.5 8.8 6.3 5.6 8.9C2.4 11.6 -3.3 12 -5.9 9.7C-8.6 7.4 -8.2 2.4 -6.7 -2.9C-5.2 -8.2 -2.6 -13.9 0.4 -14C3.4 -14.2 6.8 -8.8 8.2 -3.6Z" fill="#fcf08b"></path></g><g transform="translate(303 722)"><path d="M16.3 -6C17.5 -1.6 12.3 4.2 7.5 6.9C2.6 9.6 -1.9 9.3 -7.2 6.3C-12.5 3.3 -18.5 -2.3 -17.4 -6.5C-16.3 -10.7 -8.1 -13.6 -0.3 -13.5C7.5 -13.4 15.1 -10.4 16.3 -6Z" fill="#fcf08b"></path></g><g transform="translate(972 2989)"><path d="M73.4 -17.9C81.1 -0.4 63.4 31.3 41.1 44.8C18.7 58.3 -8.4 53.5 -25.4 40C-42.5 26.4 -49.5 4 -43.6 -11.1C-37.7 -26.3 -18.8 -34.2 7 -36.5C32.9 -38.8 65.8 -35.4 73.4 -17.9Z" fill="#fcf08b"></path></g><g transform="translate(513 1723)"><path d="M24.3 -10.6C26.4 -1.5 19.4 7.8 11.3 13.1C3.3 18.3 -5.9 19.6 -14 14.7C-22.1 9.9 -29.1 -0.9 -26.6 -10.5C-24.1 -20.2 -12 -28.6 -0.5 -28.5C11.1 -28.3 22.2 -19.6 24.3 -10.6Z" fill="#fcf08b"></path></g><g transform="translate(8 2999)"><path d="M59.9 -11.1C67.2 3.1 55.6 31.8 37.4 43C19.2 54.2 -5.5 47.9 -18.5 36C-31.4 24.1 -32.5 6.6 -27.4 -4.4C-22.4 -15.4 -11.2 -19.9 7.6 -22.4C26.3 -24.9 52.6 -25.2 59.9 -11.1Z" fill="#fcf08b"></path></g><g transform="translate(14 989)"><path d="M28.5 -10.1C33.2 5 30.5 21.6 20.1 29.6C9.8 37.6 -8.2 36.8 -19 28.5C-29.9 20.1 -33.4 4 -29.1 -10.7C-24.7 -25.5 -12.3 -38.9 -0.2 -38.9C12 -38.8 23.9 -25.2 28.5 -10.1Z" fill="#fcf08b"></path></g><g transform="translate(657 361)"><path d="M45 -14.4C51.4 5.2 45 29.2 25.8 45.5C6.6 61.7 -25.4 70.4 -46.7 56.7C-68.1 43 -78.8 6.9 -69.3 -17C-59.7 -40.9 -29.8 -52.7 -5.3 -51C19.3 -49.3 38.5 -34 45 -14.4Z" fill="#fcf08b"></path></g><g transform="translate(525 1207)"><path d="M14 -3.6C16.5 3.4 16 12.3 11.1 16.1C6.2 19.8 -3 18.3 -8.7 13.7C-14.5 9.2 -16.7 1.5 -14.7 -4.7C-12.7 -10.9 -6.3 -15.7 -0.3 -15.6C5.7 -15.5 11.4 -10.5 14 -3.6Z" fill="#fcf08b"></path></g><g transform="translate(10 1552)"><path d="M39.7 -10.2C47 9.6 45.4 35 25.1 54.6C4.7 74.1 -34.5 87.8 -56.2 73C-77.8 58.3 -82 15.2 -69.7 -11.5C-57.4 -38.2 -28.7 -48.4 -6.3 -46.3C16.2 -44.3 32.3 -30 39.7 -10.2Z" fill="#fcf08b"></path></g><g transform="translate(24 2365)"><path d="M76.3 -25.2C82 -7.3 58.1 19.8 36.8 30.5C15.6 41.1 -2.8 35.2 -15 25.3C-27.1 15.4 -32.9 1.4 -29.4 -13.6C-25.8 -28.6 -12.9 -44.5 11.2 -48.2C35.3 -51.8 70.6 -43.1 76.3 -25.2Z" fill="#fcf08b"></path></g><g transform="translate(318 124)"><path d="M8.8 -2C10.7 3 11.1 9.4 6.5 13.8C1.9 18.3 -7.6 21 -14.2 16.8C-20.7 12.7 -24.3 1.8 -21.4 -4.4C-18.6 -10.7 -9.3 -12.3 -2.9 -11.4C3.5 -10.5 6.9 -6.9 8.8 -2Z" fill="#fcf08b"></path></g><g transform="translate(341 1968)"><path d="M66.6 -16.9C73.2 -1.5 56.3 26.3 31.7 44.3C7.2 62.3 -25 70.5 -37.4 59.5C-49.9 48.6 -42.6 18.6 -33.1 -1C-23.6 -20.5 -11.8 -29.5 9.1 -32.4C30 -35.4 60.1 -32.4 66.6 -16.9Z" fill="#fcf08b"></path></g></g></svg>